<svg width="240" height="48" viewBox="0 0 240 48" fill="none" xmlns="http://www.w3.org/2000/svg">
<path d="M38.2304 19.8665C38.8975 18.4398 39.233 16.4887 38.0415 15.3358C36.021 13.6623 33.0635 15.5556 31.5558 17.1828C26.5007 22.8549 29.4929 32.5102 37.5826 29.464C44.6775 26.9537 49.4358 16.9592 43.6943 10.994C39.6494 6.91059 32.5583 7.31546 27.9119 10.3347C20.2309 15.4129 18.2142 24.351 21.5496 31.5732C26.412 40.92 37.4978 41.4289 44.9166 35.3828" stroke="#FE3C00" stroke-width="3.08475" stroke-linecap="round" stroke-linejoin="round"/>
<path d="M163.722 32.4032C159.088 32.4032 155.892 29.0066 155.893 24.1363C155.893 19.265 159.663 15.8685 164.297 15.8685C166.682 15.8685 171.45 16.9597 172.604 21.9444C172.679 22.2688 172.703 22.6035 172.703 22.9382V32.0516H169.508L169.476 29.9366C168.26 31.4741 166.152 32.4032 163.722 32.4032ZM159.472 24.1363C159.472 27.0847 161.453 29.135 164.297 29.135C167.142 29.135 169.124 27.0847 169.124 24.1363C169.124 21.1888 167.142 19.1375 164.297 19.1375C161.453 19.1375 159.472 21.1888 159.472 24.1363Z" fill="#1E1E1E"/>
<path d="M119.575 31.8266V23.2382C119.575 15.8685 113.879 15.8685 111.896 15.8685C109.66 15.8685 107.774 16.926 106.783 18.6566C105.537 16.7985 103.619 15.8703 101.158 15.8703C97.0998 15.8703 94.5742 18.4644 94.5742 22.7591V32.0188H98.1545V23.0469C98.1545 20.5157 99.3048 19.1066 101.447 19.1066C103.811 19.1066 105.376 20.7716 105.376 23.24V32.0188H108.956V23.241C108.956 20.7088 110.38 19.0588 112.523 19.0588C114.855 19.0588 116.116 20.7725 116.116 23.241V31.8285H119.575V31.8266Z" fill="#1E1E1E"/>
<path d="M66.6875 32.4032C61.5725 32.4032 58.25 29.135 58.25 24.1363C58.25 19.2332 61.6381 15.8685 66.6556 15.8685C68.9562 15.8685 70.9391 16.671 72.6312 18.305L70.4581 20.6441C69.5 19.6822 68.1247 19.1375 66.7194 19.1375C63.8431 19.1375 61.8294 21.1888 61.8294 24.1363C61.8294 27.1166 63.8112 29.135 66.7194 29.135C68.2522 29.135 69.6584 28.5585 70.6184 27.5019L72.8234 29.9047C71.0647 31.6025 69.1156 32.4032 66.6875 32.4032Z" fill="#1E1E1E"/>
<path d="M83.168 32.4032C78.023 32.4032 74.7324 28.8791 74.7324 24.1363C74.7324 19.3944 78.024 15.8685 83.168 15.8685C88.283 15.8685 91.5746 19.3944 91.5746 24.1372C91.5746 28.8791 88.283 32.4032 83.168 32.4032ZM78.3109 24.1363C78.3109 26.8916 80.1962 29.135 83.168 29.135C86.1099 29.135 87.9952 26.8916 87.9952 24.1363C87.9952 21.38 86.1099 19.1375 83.168 19.1375C80.1962 19.1375 78.3109 21.38 78.3109 24.1363Z" fill="#1E1E1E"/>
<path d="M122.814 39.3647V23.8444C122.814 21.2063 124.733 15.8372 131.22 15.8372C135.854 15.8372 139.626 19.2741 139.626 24.1453C139.626 29.0147 136.431 32.4122 131.796 32.4122C129.59 32.4122 127.641 31.6425 126.395 30.3291V39.3647H122.814ZM126.395 24.1453C126.395 27.0928 128.408 29.1441 131.22 29.1441C134.064 29.1441 136.046 27.0928 136.046 24.1453C136.046 21.196 134.064 19.1466 131.22 19.1466C128.408 19.1466 126.395 21.196 126.395 24.1453Z" fill="#1E1E1E"/>
<path d="M142.824 32.0322L142.889 22.7079C142.892 22.4594 142.914 22.0066 142.942 21.5201C143.02 20.2291 143.425 18.956 144.382 18.0888C146.157 16.4819 149.689 14.4757 154.68 17.2488L153.408 20.3388C152.523 19.736 151.46 19.5522 150.432 19.5522C147.194 19.5522 146.367 21.3119 146.367 24.3888V32.0322H142.824Z" fill="#1E1E1E"/>
</svg>